# xmcd
#
# Track frame offsets:
#	150
#	25320
#	36497
#	47315
#	60530
#	70967
#	83830
#	94530
#	105795
#	119450
#	131362
#	146042
#	160865
#	172665
#	186737
#	200840
#	209952
#
# Disc length: 2944 seconds
#
# Revision: 1
# Processed by: cddbd v1.4PL0 Copyright (c) Steve Scherf et al.
# Submitted via: audiograbber 1.81.03
#
DISCID=f30b7e11
DTITLE=Various Artist - Western Movie Hits
DYEAR=1900
DGENRE=
TTITLE0=Unforgiven - Claudia`s Theme
TTITLE1=Pat Garrett and Billy The Kid - Knockin`on Heaven`s Door
TTITLE2=The Return Of The Magnificent Seven - The Return Of The Magnificent Sev
TTITLE2=en
TTITLE3=Hang Em High - Hang Em High
TTITLE4=The Paleface - Buttons And Bows
TTITLE5=Streets Of Laredo - Streets Of Laredo
TTITLE6=Bonanza - Bonanza
TTITLE7=Wild Is The Wind - Wild Is The Wind
TTITLE8=Vera Cruz - Vera Cruz
TTITLE9=The Man From Laramie - The Man From Laramie
TTITLE10=Bronco Billy - Cowboys And Clowns
TTITLE11=A Professional Gun - A Professional Gun
TTITLE12=I Walk The Line - I Walk The Line
TTITLE13=High Plains Drifter - High Plains Drifter
TTITLE14=Apache Country - Cold Cold Heart
TTITLE15=How The West Was Won - How The West Was Won
TTITLE16=True Grit - True Grit
EXTD=
EXTT0=
EXTT1=
EXTT2=
EXTT3=
EXTT4=
EXTT5=
EXTT6=
EXTT7=
EXTT8=
EXTT9=
EXTT10=
EXTT11=
EXTT12=
EXTT13=
EXTT14=
EXTT15=
EXTT16=
PLAYORDER=
